<svg xmlns="http://www.w3.org/2000/svg" xmlns:xlink="http://www.w3.org/1999/xlink" xmlns:lucid="lucid" width="1360" height="1760"><g transform="translate(0 0)" lucid:page-tab-id="0_0"><path d="M56 264c-13.25 0-24-10.75-24-24 0-10.6 6.5-19.55 16.58-22.83C48 186 88 180 104 192c8-18 48-12 48 6 24-6 48 18 32 48 16 24 0 54-32 42-8 15.6-40 15.6-48 0-16 12-48 6-48-24z" stroke="#000" stroke-width="2" fill="#fff"/><use xlink:href="#a" transform="matrix(1,0,0,1,37,185) translate(46.025 37)"/><use xlink:href="#b" transform="matrix(1,0,0,1,37,185) translate(49.55 58.6)"/><use xlink:href="#c" transform="matrix(1,0,0,1,37,185) translate(60.5 80.20000000000002)"/><path d="M719 288c0 6.63-26.86 12-60 12s-60-5.37-60-12v-96c0-6.63 26.86-12 60-12s60 5.37 60 12z" stroke="#000" stroke-width="2" fill="#fff"/><path d="M719 192c0 6.63-26.86 12-60 12s-60-5.37-60-12" stroke="#000" stroke-width="2" fill="none"/><use xlink:href="#d" transform="matrix(1,0,0,1,604,209) translate(16.525 46.6)"/><path d="M739 308c0 6.63-26.86 12-60 12s-60-5.37-60-12v-96c0-6.63 26.86-12 60-12s60 5.37 60 12z" stroke="#000" stroke-width="2" fill="#fff"/><path d="M739 212c0 6.63-26.86 12-60 12s-60-5.37-60-12" stroke="#000" stroke-width="2" fill="none"/><use xlink:href="#d" transform="matrix(1,0,0,1,624,229) translate(16.525 46.6)"/><path d="M759 328c0 6.63-26.86 12-60 12s-60-5.37-60-12v-96c0-6.63 26.86-12 60-12s60 5.37 60 12z" stroke="#000" stroke-width="2" fill="#fff"/><path d="M759 232c0 6.63-26.86 12-60 12s-60-5.37-60-12" stroke="#000" stroke-width="2" fill="none"/><use xlink:href="#d" transform="matrix(1,0,0,1,644,249) translate(16.525 46.6)"/><path d="M779 348c0 6.63-26.86 12-60 12s-60-5.37-60-12v-96c0-6.63 26.86-12 60-12s60 5.37 60 12z" stroke="#000" stroke-width="2" fill="#fff"/><path d="M779 252c0 6.63-26.86 12-60 12s-60-5.37-60-12" stroke="#000" stroke-width="2" fill="none"/><use xlink:href="#d" transform="matrix(1,0,0,1,664,269) translate(16.525 46.6)"/><path d="M799 368c0 6.63-26.86 12-60 12s-60-5.37-60-12v-96c0-6.63 26.86-12 60-12s60 5.37 60 12z" stroke="#000" stroke-width="2" fill="#fff"/><path d="M799 272c0 6.63-26.86 12-60 12s-60-5.37-60-12" stroke="#000" stroke-width="2" fill="none"/><use xlink:href="#e" transform="matrix(1,0,0,1,684,289) translate(1.5749999999999957 46.6)"/><path d="M300 180h160v120H300z" stroke="#000" stroke-width="2" fill="#fff"/><use xlink:href="#f" transform="matrix(1,0,0,1,305,185) translate(14.124999999999993 58.6)"/><path d="M482.36 241H461v-2h21.36zm97.4 0H544.3v-2h35.46zM461 241h-1v-2h1zM594.76 240l-14.26 4.64v-9.28z"/><path d="M598 240l-18.5 6v-12zm-16.5 3.26l10.03-3.26-10.03-3.26z"/><use xlink:href="#g" transform="matrix(1,0,0,1,482.35833333333335,218.4) translate(0 14.4)"/><use xlink:href="#h" transform="matrix(1,0,0,1,482.35833333333335,218.4) translate(0 36)"/><path d="M300 460h160v120H300z" stroke="#000" stroke-width="2" fill="#fff"/><use xlink:href="#i" transform="matrix(1,0,0,1,305,465) translate(20.624999999999993 58.6)"/><path d="M232.33 241h-26.36v-2h26.36zm66.67 0h-8.67v-2H299zM300 241h-1v-2h1zM205.23 244.64L190.97 240l14.26-4.64z"/><path d="M206.23 246l-18.5-6 18.5-6zm-12.03-6l10.03 3.26v-6.52z"/><use xlink:href="#j" transform="matrix(1,0,0,1,232.33333333333331,218.4) translate(0 14.4)"/><use xlink:href="#h" transform="matrix(1,0,0,1,232.33333333333331,218.4) translate(0 36)"/><path d="M474.5 421H381v38h-2v-40h95.5zm265.5 0H533.4v-2H738v-19.76h2zM381 460h-2v-1h2zM743.64 398.5h-9.28l4.64-14.26z"/><path d="M745 399.5h-12l6-18.5zm-9.26-2h6.52L739 387.47z"/><use xlink:href="#k" transform="matrix(1,0,0,1,474.5064566873523,398.40029227273305) translate(0 14.4)"/><use xlink:href="#h" transform="matrix(1,0,0,1,474.5064566873523,398.40029227273305) translate(0 36)"/><path d="M659 460h160v120H659z" stroke="#000" stroke-width="2" fill="#fff"/><use xlink:href="#l" transform="matrix(1,0,0,1,664,465) translate(50.05 47.8)"/><use xlink:href="#m" transform="matrix(1,0,0,1,664,465) translate(50.05 69.4)"/><path d="M500.83 521H461v-2h39.83zm138.93 0h-65.93v-2h65.93zM461 521h-1v-2h1zM654.76 520l-14.26 4.64v-9.28z"/><path d="M658 520l-18.5 6v-12zm-16.5 3.26l10.03-3.26-10.03-3.26z"/><use xlink:href="#n" transform="matrix(1,0,0,1,500.83333333333337,498.4) translate(0 14.4)"/><use xlink:href="#o" transform="matrix(1,0,0,1,500.83333333333337,498.4) translate(0 36)"/><path d="M959.75 459.75c0 10.9-8.84 19.75-19.75 19.75-10.9 0-19.75-8.84-19.75-19.75 0-10.9 8.84-19.75 19.75-19.75 10.9 0 19.75 8.84 19.75 19.75z" stroke="#000" stroke-width="2" fill="#fff"/><path d="M900 440h80v158h-80z" fill="none"/><path d="M940 479.5v55.3l40 63.2m-40-63.2L900 598m0-98.75h80" stroke="#000" stroke-width="2" fill="none"/><g><use xlink:href="#p" transform="matrix(1,0,0,1,820,598) translate(101.05 14.6)"/></g><path d="M820 520h40v10h21.76" stroke="#000" stroke-width="2" fill="none"/><path d="M820 521h-1v-2h1zM896.76 530l-14.26 4.64v-9.28z"/><path d="M900 530l-18.5 6v-12zm-16.5 3.26l10.03-3.26-10.03-3.26z"/><defs><path d="M143 4C61 4 22-44 18-125c-5-107 100-154 193-111 17 8 29 25 37 43l-32 9c-13-25-37-40-76-40-61 0-88 39-88 99 0 61 29 100 91 101 35 0 62-11 79-27v-45h-74v-28h105v86C228-13 192 4 143 4" id="q"/><path d="M100-194c62-1 85 37 85 99 1 63-27 99-86 99S16-35 15-95c0-66 28-99 85-99zM99-20c44 1 53-31 53-75 0-43-8-75-51-75s-53 32-53 75 10 74 51 75" id="r"/><path d="M177-190C167-65 218 103 67 71c-23-6-38-20-44-43l32-5c15 47 100 32 89-28v-30C133-14 115 1 83 1 29 1 15-40 15-95c0-56 16-97 71-98 29-1 48 16 59 35 1-10 0-23 2-32h30zM94-22c36 0 50-32 50-73 0-42-14-75-50-75-39 0-46 34-46 75s6 73 46 73" id="s"/><path d="M24 0v-261h32V0H24" id="t"/><path d="M100-194c63 0 86 42 84 106H49c0 40 14 67 53 68 26 1 43-12 49-29l28 8c-11 28-37 45-77 45C44 4 14-33 15-96c1-61 26-98 85-98zm52 81c6-60-76-77-97-28-3 7-6 17-6 28h103" id="u"/><g id="a"><use transform="matrix(0.05,0,0,0.05,0,0)" xlink:href="#q"/><use transform="matrix(0.05,0,0,0.05,14,0)" xlink:href="#r"/><use transform="matrix(0.05,0,0,0.05,24,0)" xlink:href="#r"/><use transform="matrix(0.05,0,0,0.05,34,0)" xlink:href="#s"/><use transform="matrix(0.05,0,0,0.05,44,0)" xlink:href="#t"/><use transform="matrix(0.05,0,0,0.05,47.95,0)" xlink:href="#u"/></g><path d="M205 0l-28-72H64L36 0H1l101-248h38L239 0h-34zm-38-99l-47-123c-12 45-31 82-46 123h93" id="v"/><path d="M85-194c31 0 48 13 60 33l-1-100h32l1 261h-30c-2-10 0-23-3-31C134-8 116 4 85 4 32 4 16-35 15-94c0-66 23-100 70-100zm9 24c-40 0-46 34-46 75 0 40 6 74 45 74 42 0 51-32 51-76 0-42-9-74-50-73" id="w"/><path d="M210-169c-67 3-38 105-44 169h-31v-121c0-29-5-50-35-48C34-165 62-65 56 0H25l-1-190h30c1 10-1 24 2 32 10-44 99-50 107 0 11-21 27-35 58-36 85-2 47 119 55 194h-31v-121c0-29-5-49-35-48" id="x"/><path d="M24-231v-30h32v30H24zM24 0v-190h32V0H24" id="y"/><path d="M117-194c89-4 53 116 60 194h-32v-121c0-31-8-49-39-48C34-167 62-67 57 0H25l-1-190h30c1 10-1 24 2 32 11-22 29-35 61-36" id="z"/><g id="b"><use transform="matrix(0.05,0,0,0.05,0,0)" xlink:href="#v"/><use transform="matrix(0.05,0,0,0.05,12,0)" xlink:href="#w"/><use transform="matrix(0.05,0,0,0.05,22,0)" xlink:href="#x"/><use transform="matrix(0.05,0,0,0.05,36.95,0)" xlink:href="#y"/><use transform="matrix(0.05,0,0,0.05,40.900000000000006,0)" xlink:href="#z"/></g><path d="M30-248c87 1 191-15 191 75 0 78-77 80-158 76V0H30v-248zm33 125c57 0 124 11 124-50 0-59-68-47-124-48v98" id="A"/><path d="M33 0v-248h34V0H33" id="B"/><g id="c"><use transform="matrix(0.05,0,0,0.05,0,0)" xlink:href="#v"/><use transform="matrix(0.05,0,0,0.05,12,0)" xlink:href="#A"/><use transform="matrix(0.05,0,0,0.05,24,0)" xlink:href="#B"/></g><path d="M30-248c118-7 216 8 213 122C240-48 200 0 122 0H30v-248zM63-27c89 8 146-16 146-99s-60-101-146-95v194" id="C"/><path d="M141-36C126-15 110 5 73 4 37 3 15-17 15-53c-1-64 63-63 125-63 3-35-9-54-41-54-24 1-41 7-42 31l-33-3c5-37 33-52 76-52 45 0 72 20 72 64v82c-1 20 7 32 28 27v20c-31 9-61-2-59-35zM48-53c0 20 12 33 32 33 41-3 63-29 60-74-43 2-92-5-92 41" id="D"/><path d="M59-47c-2 24 18 29 38 22v24C64 9 27 4 27-40v-127H5v-23h24l9-43h21v43h35v23H59v120" id="E"/><path d="M115-194c53 0 69 39 70 98 0 66-23 100-70 100C84 3 66-7 56-30L54 0H23l1-261h32v101c10-23 28-34 59-34zm-8 174c40 0 45-34 45-75 0-40-5-75-45-74-42 0-51 32-51 76 0 43 10 73 51 73" id="F"/><path d="M135-143c-3-34-86-38-87 0 15 53 115 12 119 90S17 21 10-45l28-5c4 36 97 45 98 0-10-56-113-15-118-90-4-57 82-63 122-42 12 7 21 19 24 35" id="G"/><g id="d"><use transform="matrix(0.05,0,0,0.05,0,0)" xlink:href="#C"/><use transform="matrix(0.05,0,0,0.05,12.950000000000001,0)" xlink:href="#D"/><use transform="matrix(0.05,0,0,0.05,22.950000000000003,0)" xlink:href="#E"/><use transform="matrix(0.05,0,0,0.05,27.950000000000003,0)" xlink:href="#D"/><use transform="matrix(0.05,0,0,0.05,37.95,0)" xlink:href="#F"/><use transform="matrix(0.05,0,0,0.05,47.95,0)" xlink:href="#D"/><use transform="matrix(0.05,0,0,0.05,57.95,0)" xlink:href="#G"/><use transform="matrix(0.05,0,0,0.05,66.95,0)" xlink:href="#u"/></g><path d="M30 0v-248h187v28H63v79h144v27H63v87h162V0H30" id="H"/><path d="M96-169c-40 0-48 33-48 73s9 75 48 75c24 0 41-14 43-38l32 2c-6 37-31 61-74 61-59 0-76-41-82-99-10-93 101-131 147-64 4 7 5 14 7 22l-32 3c-4-21-16-35-41-35" id="I"/><path d="M114-163C36-179 61-72 57 0H25l-1-190h30c1 12-1 29 2 39 6-27 23-49 58-41v29" id="J"/><path d="M106-169C34-169 62-67 57 0H25v-261h32l-1 103c12-21 28-36 61-36 89 0 53 116 60 194h-32v-121c2-32-8-49-39-48" id="K"/><g id="e"><use transform="matrix(0.05,0,0,0.05,0,0)" xlink:href="#H"/><use transform="matrix(0.05,0,0,0.05,12,0)" xlink:href="#t"/><use transform="matrix(0.05,0,0,0.05,15.949999999999998,0)" xlink:href="#D"/><use transform="matrix(0.05,0,0,0.05,25.950000000000003,0)" xlink:href="#G"/><use transform="matrix(0.05,0,0,0.05,34.95,0)" xlink:href="#E"/><use transform="matrix(0.05,0,0,0.05,39.95,0)" xlink:href="#y"/><use transform="matrix(0.05,0,0,0.05,43.900000000000006,0)" xlink:href="#I"/><use transform="matrix(0.05,0,0,0.05,52.900000000000006,0)" xlink:href="#G"/><use transform="matrix(0.05,0,0,0.05,61.900000000000006,0)" xlink:href="#u"/><use transform="matrix(0.05,0,0,0.05,71.9,0)" xlink:href="#D"/><use transform="matrix(0.05,0,0,0.05,81.9,0)" xlink:href="#J"/><use transform="matrix(0.05,0,0,0.05,87.85000000000001,0)" xlink:href="#I"/><use transform="matrix(0.05,0,0,0.05,96.85000000000001,0)" xlink:href="#K"/></g><path d="M84 4C-5 8 30-112 23-190h32v120c0 31 7 50 39 49 72-2 45-101 50-169h31l1 190h-30c-1-10 1-25-2-33-11 22-28 36-60 37" id="L"/><path d="M16-82v-28h88v28H16" id="M"/><g id="f"><use transform="matrix(0.05,0,0,0.05,0,0)" xlink:href="#r"/><use transform="matrix(0.05,0,0,0.05,10,0)" xlink:href="#D"/><use transform="matrix(0.05,0,0,0.05,20,0)" xlink:href="#L"/><use transform="matrix(0.05,0,0,0.05,30,0)" xlink:href="#w"/><use transform="matrix(0.05,0,0,0.05,40,0)" xlink:href="#y"/><use transform="matrix(0.05,0,0,0.05,43.95,0)" xlink:href="#E"/><use transform="matrix(0.05,0,0,0.05,48.95,0)" xlink:href="#M"/><use transform="matrix(0.05,0,0,0.05,54.900000000000006,0)" xlink:href="#I"/><use transform="matrix(0.05,0,0,0.05,63.900000000000006,0)" xlink:href="#r"/><use transform="matrix(0.05,0,0,0.05,73.9,0)" xlink:href="#t"/><use transform="matrix(0.05,0,0,0.05,77.85000000000001,0)" xlink:href="#t"/><use transform="matrix(0.05,0,0,0.05,81.80000000000001,0)" xlink:href="#u"/><use transform="matrix(0.05,0,0,0.05,91.80000000000001,0)" xlink:href="#I"/><use transform="matrix(0.05,0,0,0.05,100.80000000000001,0)" xlink:href="#E"/><use transform="matrix(0.05,0,0,0.05,105.80000000000001,0)" xlink:href="#r"/><use transform="matrix(0.05,0,0,0.05,115.80000000000001,0)" xlink:href="#J"/></g><path d="M141 0L90-78 38 0H4l68-98-65-92h35l48 74 47-74h35l-64 92 68 98h-35" id="N"/><g id="g"><use transform="matrix(0.05,0,0,0.05,0,0)" xlink:href="#y"/><use transform="matrix(0.05,0,0,0.05,3.95,0)" xlink:href="#z"/><use transform="matrix(0.05,0,0,0.05,13.949999999999998,0)" xlink:href="#w"/><use transform="matrix(0.05,0,0,0.05,23.95,0)" xlink:href="#u"/><use transform="matrix(0.05,0,0,0.05,33.95,0)" xlink:href="#N"/><use transform="matrix(0.05,0,0,0.05,42.95,0)" xlink:href="#u"/><use transform="matrix(0.05,0,0,0.05,52.95,0)" xlink:href="#G"/></g><path d="M108 0H70L1-190h34L89-25l56-165h34" id="O"/><g id="h"><use transform="matrix(0.05,0,0,0.05,0,0)" xlink:href="#u"/><use transform="matrix(0.05,0,0,0.05,10,0)" xlink:href="#O"/><use transform="matrix(0.05,0,0,0.05,19,0)" xlink:href="#u"/><use transform="matrix(0.05,0,0,0.05,29,0)" xlink:href="#z"/><use transform="matrix(0.05,0,0,0.05,39,0)" xlink:href="#E"/><use transform="matrix(0.05,0,0,0.05,44,0)" xlink:href="#G"/></g><path d="M101-234c-31-9-42 10-38 44h38v23H63V0H32v-167H5v-23h27c-7-52 17-82 69-68v24" id="P"/><g id="i"><use transform="matrix(0.05,0,0,0.05,0,0)" xlink:href="#r"/><use transform="matrix(0.05,0,0,0.05,10,0)" xlink:href="#D"/><use transform="matrix(0.05,0,0,0.05,20,0)" xlink:href="#L"/><use transform="matrix(0.05,0,0,0.05,30,0)" xlink:href="#w"/><use transform="matrix(0.05,0,0,0.05,40,0)" xlink:href="#y"/><use transform="matrix(0.05,0,0,0.05,43.95,0)" xlink:href="#E"/><use transform="matrix(0.05,0,0,0.05,48.95,0)" xlink:href="#M"/><use transform="matrix(0.05,0,0,0.05,54.900000000000006,0)" xlink:href="#z"/><use transform="matrix(0.05,0,0,0.05,64.9,0)" xlink:href="#r"/><use transform="matrix(0.05,0,0,0.05,74.9,0)" xlink:href="#E"/><use transform="matrix(0.05,0,0,0.05,79.9,0)" xlink:href="#y"/><use transform="matrix(0.05,0,0,0.05,83.85000000000001,0)" xlink:href="#P"/><use transform="matrix(0.05,0,0,0.05,88.85000000000001,0)" xlink:href="#y"/><use transform="matrix(0.05,0,0,0.05,92.80000000000001,0)" xlink:href="#u"/><use transform="matrix(0.05,0,0,0.05,102.80000000000001,0)" xlink:href="#J"/></g><g id="j"><use transform="matrix(0.05,0,0,0.05,0,0)" xlink:href="#P"/><use transform="matrix(0.05,0,0,0.05,5,0)" xlink:href="#u"/><use transform="matrix(0.05,0,0,0.05,15,0)" xlink:href="#E"/><use transform="matrix(0.05,0,0,0.05,20,0)" xlink:href="#I"/><use transform="matrix(0.05,0,0,0.05,29,0)" xlink:href="#K"/><use transform="matrix(0.05,0,0,0.05,39,0)" xlink:href="#u"/><use transform="matrix(0.05,0,0,0.05,49,0)" xlink:href="#G"/></g><path d="M145-31C134-9 116 4 85 4 32 4 16-35 15-94c0-59 17-99 70-100 32-1 48 14 60 33 0-11-1-24 2-32h30l-1 268h-32zM93-21c41 0 51-33 51-76s-8-73-50-73c-40 0-46 35-46 75s5 74 45 74" id="Q"/><g id="k"><use transform="matrix(0.05,0,0,0.05,0,0)" xlink:href="#Q"/><use transform="matrix(0.05,0,0,0.05,10,0)" xlink:href="#L"/><use transform="matrix(0.05,0,0,0.05,20,0)" xlink:href="#u"/><use transform="matrix(0.05,0,0,0.05,30,0)" xlink:href="#J"/><use transform="matrix(0.05,0,0,0.05,35.95,0)" xlink:href="#y"/><use transform="matrix(0.05,0,0,0.05,39.900000000000006,0)" xlink:href="#u"/><use transform="matrix(0.05,0,0,0.05,49.900000000000006,0)" xlink:href="#G"/></g><path d="M185-189c-5-48-123-54-124 2 14 75 158 14 163 119 3 78-121 87-175 55-17-10-28-26-33-46l33-7c5 56 141 63 141-1 0-78-155-14-162-118-5-82 145-84 179-34 5 7 8 16 11 25" id="R"/><path d="M240 0l2-218c-23 76-54 145-80 218h-23L58-218 59 0H30v-248h44l77 211c21-75 51-140 76-211h43V0h-30" id="S"/><path d="M127-220V0H93v-220H8v-28h204v28h-85" id="T"/><g id="l"><use transform="matrix(0.05,0,0,0.05,0,0)" xlink:href="#R"/><use transform="matrix(0.05,0,0,0.05,12,0)" xlink:href="#S"/><use transform="matrix(0.05,0,0,0.05,26.950000000000003,0)" xlink:href="#T"/><use transform="matrix(0.05,0,0,0.05,37.900000000000006,0)" xlink:href="#A"/></g><g id="m"><use transform="matrix(0.05,0,0,0.05,0,0)" xlink:href="#G"/><use transform="matrix(0.05,0,0,0.05,9,0)" xlink:href="#u"/><use transform="matrix(0.05,0,0,0.05,19,0)" xlink:href="#J"/><use transform="matrix(0.05,0,0,0.05,24.95,0)" xlink:href="#O"/><use transform="matrix(0.05,0,0,0.05,33.95,0)" xlink:href="#u"/><use transform="matrix(0.05,0,0,0.05,43.95,0)" xlink:href="#J"/></g><g id="n"><use transform="matrix(0.05,0,0,0.05,0,0)" xlink:href="#z"/><use transform="matrix(0.05,0,0,0.05,10,0)" xlink:href="#r"/><use transform="matrix(0.05,0,0,0.05,20,0)" xlink:href="#E"/><use transform="matrix(0.05,0,0,0.05,25,0)" xlink:href="#y"/><use transform="matrix(0.05,0,0,0.05,28.950000000000003,0)" xlink:href="#P"/><use transform="matrix(0.05,0,0,0.05,33.95,0)" xlink:href="#y"/><use transform="matrix(0.05,0,0,0.05,37.900000000000006,0)" xlink:href="#u"/><use transform="matrix(0.05,0,0,0.05,47.900000000000006,0)" xlink:href="#G"/></g><g id="o"><use transform="matrix(0.05,0,0,0.05,0,0)" xlink:href="#u"/><use transform="matrix(0.05,0,0,0.05,10,0)" xlink:href="#w"/><use transform="matrix(0.05,0,0,0.05,20,0)" xlink:href="#L"/><use transform="matrix(0.05,0,0,0.05,30,0)" xlink:href="#I"/><use transform="matrix(0.05,0,0,0.05,39,0)" xlink:href="#D"/><use transform="matrix(0.05,0,0,0.05,49,0)" xlink:href="#E"/><use transform="matrix(0.05,0,0,0.05,54,0)" xlink:href="#u"/><use transform="matrix(0.05,0,0,0.05,64,0)" xlink:href="#G"/></g><path d="M232-93c-1 65-40 97-104 97C67 4 28-28 28-90v-158h33c8 89-33 224 67 224 102 0 64-133 71-224h33v155" id="U"/><g id="p"><use transform="matrix(0.05,0,0,0.05,0,0)" xlink:href="#U"/><use transform="matrix(0.05,0,0,0.05,12.950000000000001,0)" xlink:href="#G"/><use transform="matrix(0.05,0,0,0.05,21.950000000000003,0)" xlink:href="#u"/><use transform="matrix(0.05,0,0,0.05,31.950000000000003,0)" xlink:href="#J"/></g></defs></g></svg>